<svg width="34" height="34" viewBox="0 0 34 34" fill="none" xmlns="http://www.w3.org/2000/svg">
<path d="M31.7083 18.875C31.5901 19.6593 30.5304 26.8993 30.1106 29.7555C30.0628 30.1844 29.992 30.6098 29.8987 31.0294C29.6787 31.8949 29.2078 32.6552 28.5591 33.1922C27.9105 33.7292 27.1206 34.0128 26.3121 33.9989H7.68626C6.77401 34.0229 5.88645 33.6679 5.19688 33.0032C4.5073 32.3384 4.06524 31.4116 3.95701 30.4038C3.48423 27.0897 2.32673 19.4144 2.26559 18.8659H1.70315C1.47811 18.8677 1.25504 18.8195 1.04702 18.724C0.838997 18.6285 0.650249 18.4877 0.491885 18.3099C0.333521 18.132 0.208746 17.9207 0.12489 17.6884C0.0410337 17.4562 -0.000216312 17.2076 0.00359482 16.9573C0.00359482 16.1684 0.00359482 15.3796 0.00359482 14.5953C-0.0121134 14.328 0.0237806 14.0601 0.10887 13.8096C0.193959 13.559 0.326266 13.3316 0.49691 13.1427C0.667554 12.9537 0.872583 12.8076 1.09821 12.7141C1.32384 12.6206 1.56484 12.5818 1.80504 12.6005H13.4819C13.4207 12.4328 13.38 12.3059 13.3311 12.188C11.9725 8.92081 10.6058 5.65213 9.23094 2.38193C8.95379 1.72457 9.02714 1.47522 9.60589 1.16241C10.1846 0.849593 10.8042 0.486909 11.4074 0.155961C11.925 -0.129653 12.1817 -0.0344499 12.4303 0.536776C14.1095 4.36611 15.7846 8.19695 17.4557 12.0293C17.5086 12.2174 17.6192 12.3789 17.7681 12.4857C17.917 12.5926 18.0949 12.638 18.2708 12.6141C22.8845 12.6141 27.5022 12.6141 32.1281 12.6141C32.3766 12.5882 32.6272 12.623 32.8623 12.7161C33.0974 12.8092 33.3114 12.9584 33.4893 13.1532C33.6671 13.3479 33.8045 13.5836 33.8918 13.8437C33.9791 14.1038 34.0143 14.382 33.9948 14.6588V16.8666C34.011 17.1368 33.9751 17.4077 33.8895 17.6612C33.8039 17.9147 33.6705 18.1449 33.4984 18.3364C33.3262 18.5279 33.1193 18.6762 32.8914 18.7715C32.6635 18.8667 32.4199 18.9066 32.177 18.8886L31.7083 18.875ZM23.3206 30.2541C23.4265 30.2541 23.5325 30.2541 23.6384 30.2541C23.8861 30.2714 24.1312 30.1894 24.3293 30.0231C24.5274 29.8568 24.6655 29.6171 24.7185 29.3474C25.1994 27.0112 25.6777 24.6734 26.1532 22.334C26.1873 22.2253 26.1962 22.1086 26.1791 21.995C26.1619 21.8814 26.1193 21.7744 26.055 21.684C25.9908 21.5935 25.9071 21.5226 25.8117 21.4777C25.7163 21.4329 25.6122 21.4156 25.5092 21.4273C25.0486 21.4273 24.5881 21.4273 24.1275 21.4273C23.8833 21.406 23.6415 21.4934 23.455 21.6701C23.2686 21.8469 23.1528 22.0987 23.1331 22.3703C22.9171 23.9661 22.3179 28.5314 22.2364 29.2205C22.1549 29.9096 22.4157 30.2813 23.0515 30.2859L23.3206 30.2541ZM9.19019 21.3956H8.481C8.37457 21.3794 8.26618 21.3944 8.16659 21.4392C8.067 21.484 7.97968 21.557 7.91333 21.651C7.84698 21.745 7.8039 21.8566 7.78838 21.9749C7.77285 22.0931 7.78541 22.2138 7.82482 22.325C8.2976 24.6492 8.7731 26.9734 9.25131 29.2976C9.29523 29.572 9.42649 29.8197 9.62106 29.9953C9.81564 30.1709 10.0605 30.2628 10.311 30.2541C10.5474 30.2541 10.7838 30.2541 11.0202 30.2541C11.1257 30.2643 11.232 30.2469 11.3305 30.2034C11.4289 30.1598 11.5169 30.0913 11.5874 30.0032C11.6578 29.9152 11.7088 29.81 11.7363 29.6962C11.7638 29.5823 11.767 29.4629 11.7456 29.3474C11.4467 26.9991 11.1424 24.6507 10.8327 22.3023C10.8082 22.0483 10.6985 21.8139 10.5255 21.6458C10.3525 21.4778 10.1289 21.3884 9.89935 21.3956C9.66296 21.3865 9.42658 21.3956 9.19019 21.3956ZM18.442 22.325C18.453 22.2019 18.4396 22.0775 18.4029 21.9608C18.3661 21.844 18.3068 21.7376 18.2291 21.649C18.1514 21.5604 18.0572 21.4919 17.9532 21.4481C17.8491 21.4043 17.7378 21.3864 17.6268 21.3956H16.4041C16.2885 21.3818 16.1716 21.3976 16.0623 21.4418C15.953 21.486 15.8543 21.5574 15.7736 21.6506C15.693 21.7438 15.6326 21.8563 15.597 21.9795C15.5615 22.1027 15.5518 22.2333 15.5686 22.3612C15.6257 24.0749 15.7846 28.7082 15.8254 29.2749C15.8212 29.411 15.8433 29.5466 15.8903 29.6724C15.9372 29.7982 16.0079 29.9114 16.0975 30.0042C16.1872 30.097 16.2937 30.1674 16.4098 30.2105C16.526 30.2536 16.6492 30.2685 16.7709 30.2541H17.1011C17.8877 30.2541 18.177 29.9323 18.2096 29.0482C18.2341 27.9466 18.4094 23.4674 18.442 22.325ZM18.2626 16.377C18.2642 16.0959 18.1908 15.8207 18.0516 15.5862C17.9124 15.3516 17.7138 15.1683 17.4808 15.0595C17.2478 14.9508 16.9911 14.9214 16.7431 14.9751C16.4951 15.0288 16.267 15.1632 16.0878 15.3613C15.9086 15.5594 15.7863 15.8122 15.7364 16.0877C15.6865 16.3632 15.7113 16.649 15.8076 16.9088C15.9039 17.1686 16.0674 17.3908 16.2774 17.5471C16.4873 17.7034 16.7343 17.7869 16.9869 17.7869C17.3213 17.7778 17.6398 17.6266 17.8771 17.3644C18.1144 17.1022 18.2523 16.7488 18.2626 16.377Z" fill="white"/>
</svg>
