<svg width="37" height="37" viewBox="0 0 37 37" fill="none" xmlns="http://www.w3.org/2000/svg">
<path d="M21.7583 18.498L36.3165 3.96139C36.7516 3.52621 36.9961 2.93597 36.9961 2.32053C36.9961 1.70509 36.7516 1.11485 36.3165 0.679667C35.8813 0.244484 35.2912 0 34.6758 0C34.0604 0 33.4702 0.244484 33.0351 0.679667L18.5 15.2394L3.96491 0.679667C3.52977 0.244484 2.9396 5.46417e-07 2.32422 5.51002e-07C1.70885 5.55588e-07 1.11868 0.244484 0.683538 0.679667C0.248401 1.11485 0.00394421 1.70509 0.00394421 2.32053C0.0039442 2.93597 0.248401 3.52621 0.683538 3.96139L15.2417 18.498L0.683538 33.0347C0.466948 33.2495 0.295037 33.5051 0.177719 33.7867C0.0604015 34.0684 0 34.3704 0 34.6755C0 34.9806 0.0604015 35.2827 0.177719 35.5643C0.295037 35.8459 0.466948 36.1015 0.683538 36.3164C0.898359 36.533 1.15394 36.7049 1.43553 36.8223C1.71713 36.9396 2.01917 37 2.32422 37C2.62928 37 2.93132 36.9396 3.21291 36.8223C3.49451 36.7049 3.75009 36.533 3.96491 36.3164L18.5 21.7566L33.0351 36.3164C33.2499 36.533 33.5055 36.7049 33.7871 36.8223C34.0687 36.9396 34.3707 37 34.6758 37C34.9808 37 35.2829 36.9396 35.5645 36.8223C35.8461 36.7049 36.1016 36.533 36.3165 36.3164C36.5331 36.1015 36.705 35.8459 36.8223 35.5643C36.9396 35.2827 37 34.9806 37 34.6755C37 34.3704 36.9396 34.0684 36.8223 33.7867C36.705 33.5051 36.5331 33.2495 36.3165 33.0347L21.7583 18.498Z" fill="#0E8482"/>
</svg>
