<svg width="122" height="130" viewBox="0 0 122 130" fill="none" xmlns="http://www.w3.org/2000/svg">
<path d="M64.9806 75.9235C63.6896 80.3577 63.0441 85.0083 63.0441 89.6589V130H80.7954V89.6589C80.7954 87.3877 81.1182 85.1165 81.7637 82.9534C82.8395 80.0333 85.2063 77.8702 88.2187 77.2213C89.6173 76.8968 91.0159 76.7887 92.522 76.7887C94.0282 76.7887 95.4268 76.8968 96.8254 77.2213C99.8377 77.8702 102.312 80.0333 103.173 82.9534C103.818 85.1165 104.141 87.3877 104.141 89.6589C104.141 91.9301 103.818 94.2013 103.173 96.3644C102.205 99.2845 99.8377 101.448 96.8254 102.097C95.4268 102.421 94.0282 102.529 92.522 102.529C91.1235 102.529 89.6173 102.421 88.2187 102.097C87.6808 101.988 87.0353 101.772 86.4974 101.556L92.522 118.211C98.1164 118.211 103.603 117.238 108.875 115.399C114.254 113.344 118.342 109.018 119.956 103.394C121.247 98.9601 121.892 94.3095 121.892 89.6589C121.892 85.0083 121.247 80.3577 119.956 75.9235C118.342 70.4077 114.254 65.9734 108.875 63.9185C103.603 62.0799 98.0088 61.1065 92.4145 61.1065C86.8201 61.1065 81.2257 62.0799 75.9541 63.9185C70.6825 65.9734 66.5944 70.2995 64.9806 75.9235ZM41.097 28.4443H58.8483C58.8483 23.7937 58.2028 19.2512 56.9118 14.817C55.2981 9.30116 51.2099 4.86689 45.8307 2.81198C40.6667 0.973378 35.0723 0 29.478 0C23.8836 0 18.2892 0.973378 13.0176 2.81198C7.63845 4.86689 3.55026 9.19301 1.93651 14.817C0.645503 19.2512 0 23.9018 0 28.5524C0 33.203 0.645503 37.8536 1.93651 42.2879C3.55026 47.8037 7.63845 52.2379 13.0176 54.2928C18.2892 56.1314 23.8836 57.1048 29.478 57.1048C35.0723 57.1048 40.6667 56.1314 45.9383 54.2928C51.3175 52.2379 55.4056 47.9118 57.0194 42.2879C57.2346 41.5308 57.4497 40.7737 57.6649 40.0166L40.8818 32.1215C40.6667 33.203 40.4515 34.1764 40.1287 35.2579C39.1605 38.178 36.7936 40.3411 33.7813 40.99C32.3827 41.3145 30.9841 41.4226 29.478 41.4226C27.9718 41.4226 26.5732 41.3145 25.1746 40.99C22.1623 40.3411 19.6878 38.178 18.8272 35.2579C18.1817 33.0948 17.8589 30.8236 17.8589 28.5524C17.8589 26.2812 18.1817 24.01 18.8272 21.8469C19.7954 18.9268 22.1623 16.7637 25.1746 16.1148C26.5732 15.7903 27.9718 15.6822 29.478 15.6822C30.8765 15.6822 32.3827 15.7903 33.7813 16.1148C36.7936 16.7637 39.2681 18.9268 40.1287 21.8469C40.7742 24.01 41.097 26.173 41.097 28.4443ZM41.097 89.6589C41.097 91.9301 40.7742 94.2013 40.1287 96.3644C39.1605 99.2845 36.7936 101.448 33.7813 102.097C32.3827 102.421 30.9841 102.529 29.478 102.529C28.0794 102.529 26.5732 102.421 25.1746 102.097C22.1623 101.448 19.6878 99.2845 18.8272 96.3644C18.1817 94.2013 17.8589 91.9301 17.8589 89.6589C17.8589 87.3877 18.1817 85.1165 18.8272 82.9534C19.7954 80.0333 22.1623 77.8702 25.1746 77.2213C26.5732 76.8968 27.9718 76.7887 29.478 76.7887C30.8765 76.7887 32.3827 76.8968 33.7813 77.2213C36.7936 77.8702 39.2681 80.0333 40.1287 82.9534C40.7742 85.1165 41.097 87.3877 41.097 89.6589ZM57.0194 103.394C58.3104 98.9601 58.9559 94.3095 58.9559 89.6589C58.9559 85.0083 58.3104 80.3577 57.0194 75.9235C55.4056 70.2995 51.3175 65.9734 45.9383 63.9185C40.6667 62.0799 35.0723 61.1065 29.478 61.1065C23.8836 61.1065 18.2892 62.0799 13.0176 63.9185C7.63845 65.9734 3.55026 70.2995 1.93651 75.9235C0.645503 80.3577 0 85.0083 0 89.6589C0 94.3095 0.645503 98.9601 1.93651 103.394C3.55026 108.91 7.63845 113.344 13.0176 115.399C18.2892 117.238 23.8836 118.211 29.478 118.211C35.0723 118.211 40.6667 117.238 45.9383 115.399C51.3175 113.344 55.4056 109.018 57.0194 103.394ZM104.141 28.5524C104.141 30.8236 103.818 33.0948 103.173 35.2579C102.205 38.178 99.8377 40.3411 96.8254 40.99C95.4268 41.3145 94.0282 41.4226 92.522 41.4226C91.1235 41.4226 89.6173 41.3145 88.2187 40.99C85.2063 40.3411 82.7319 38.178 81.8712 35.2579C81.2257 33.0948 80.903 30.8236 80.903 28.5524C80.903 26.2812 81.2257 24.01 81.8712 21.8469C82.8395 18.9268 85.2063 16.7637 88.2187 16.1148C89.6173 15.7903 91.0159 15.6822 92.522 15.6822C94.0282 15.6822 95.4268 15.7903 96.8254 16.1148C99.8377 16.7637 102.312 18.9268 103.173 21.8469C103.818 24.01 104.141 26.2812 104.141 28.5524ZM120.063 42.2879C121.354 37.8536 122 33.203 122 28.5524C122 23.9018 121.354 19.2512 120.063 14.817C118.45 9.30116 114.362 4.86689 108.982 2.81198C103.711 0.973378 98.1164 0 92.522 0C86.9277 0 81.3333 0.973378 76.0617 2.81198C70.6825 4.86689 66.5944 9.19301 64.9806 14.817C63.6896 19.2512 63.0441 23.9018 63.0441 28.5524C63.0441 33.203 63.6896 37.8536 64.9806 42.2879C66.5944 47.8037 70.6825 52.2379 76.0617 54.2928C81.3333 56.1314 86.9277 57.1048 92.522 57.1048C98.1164 57.1048 103.711 56.1314 108.982 54.2928C114.362 52.2379 118.45 47.9118 120.063 42.2879Z" fill="#00B1DD"/>
</svg>
