<svg width="11" height="18" viewBox="0 0 11 18" fill="none" xmlns="http://www.w3.org/2000/svg">
<path fill-rule="evenodd" clip-rule="evenodd" d="M10.4239 0.0221906C10.3705 0.133039 10.2979 0.233693 10.2094 0.319549C10.0395 0.539106 9.84955 0.742644 9.64202 0.927582L9.95476 0.568088C9.82625 0.670802 9.7173 0.795564 9.63308 0.936458C7.73428 2.62741 4.09751 3.51948 2.03786 5.64538C-1.84017 9.60868 0.800288 12.3027 1.95297 13.0838C1.95297 13.0838 1.95297 13.0838 1.95297 13.106C1.35138 14.3115 0.90123 15.586 0.612642 16.9006C0.563496 17.1092 0.523286 17.2779 0.483076 17.411C0.463108 17.4681 0.455071 17.5286 0.459457 17.5888C0.463843 17.649 0.480558 17.7077 0.508581 17.7613C0.536604 17.8149 0.575344 17.8623 0.622429 17.9005C0.669515 17.9387 0.723954 17.967 0.782416 17.9835C0.858282 18.0055 0.938874 18.0055 1.01474 17.9835C1.09607 17.9689 1.17171 17.932 1.23324 17.8772C1.29476 17.8223 1.33976 17.7516 1.36323 17.6729C1.41237 17.522 1.45705 17.3311 1.51066 17.0915C1.7821 15.8439 2.20517 14.6338 2.77058 13.4877C2.77058 13.4877 2.77058 13.461 2.77058 13.4477C3.90092 13.8205 6.63074 14.3354 8.84229 10.6517C10.3479 8.16183 11.8446 4.03875 10.4373 0L10.4239 0.0221906ZM2.50698 12.3515C2.51638 11.6423 2.63542 10.9388 2.85993 10.2655C3.0779 9.59915 3.37012 8.95904 3.73115 8.35711C4.09098 7.74492 4.52457 7.17858 5.02234 6.6706C5.5132 6.14932 6.10212 5.72864 6.75584 5.43234C6.33586 6.00931 5.9561 6.55964 5.58528 7.12329C5.21445 7.68694 4.86596 8.23284 4.52641 8.80093C4.18686 9.36902 3.85178 9.95486 3.52116 10.5451C3.19055 11.1354 2.87334 11.7434 2.50698 12.3515Z" fill="#0E8482"/>
</svg>
