<svg width="21" height="18" viewBox="0 0 21 18" fill="none" xmlns="http://www.w3.org/2000/svg">
<path fill-rule="evenodd" clip-rule="evenodd" d="M20.4239 0.0221906C20.3705 0.133039 20.2979 0.233693 20.2094 0.319549C20.0395 0.539106 19.8496 0.742644 19.642 0.927582L19.9548 0.568088C19.8262 0.670802 19.7173 0.795564 19.6331 0.936458C17.7343 2.62741 14.0975 3.51948 12.0379 5.64538C8.15983 9.60868 10.8003 12.3027 11.953 13.0838C11.953 13.0838 11.953 13.0838 11.953 13.106C11.3514 14.3115 10.9012 15.586 10.6126 16.9006C10.5635 17.1092 10.5233 17.2779 10.4831 17.411C10.4631 17.4681 10.4551 17.5286 10.4595 17.5888C10.4638 17.649 10.4806 17.7077 10.5086 17.7613C10.5366 17.8149 10.5753 17.8623 10.6224 17.9005C10.6695 17.9387 10.724 17.967 10.7824 17.9835C10.8583 18.0055 10.9389 18.0055 11.0147 17.9835C11.0961 17.9689 11.1717 17.932 11.2332 17.8772C11.2948 17.8223 11.3398 17.7516 11.3632 17.6729C11.4124 17.522 11.4571 17.3311 11.5107 17.0915C11.7821 15.8439 12.2052 14.6338 12.7706 13.4877C12.7706 13.4877 12.7706 13.461 12.7706 13.4477C13.9009 13.8205 16.6307 14.3354 18.8423 10.6517C20.3479 8.16183 21.8446 4.03875 20.4373 0L20.4239 0.0221906ZM12.507 12.3515C12.5164 11.6423 12.6354 10.9388 12.8599 10.2655C13.0779 9.59915 13.3701 8.95904 13.7312 8.35711C14.091 7.74492 14.5246 7.17858 15.0223 6.6706C15.5132 6.14932 16.1021 5.72864 16.7558 5.43234C16.3359 6.00931 15.9561 6.55964 15.5853 7.12329C15.2145 7.68694 14.866 8.23284 14.5264 8.80093C14.1869 9.36902 13.8518 9.95486 13.5212 10.5451C13.1905 11.1354 12.8733 11.7434 12.507 12.3515Z" fill="#0E8482"/>
<path fill-rule="evenodd" clip-rule="evenodd" d="M0.000845947 7C-0.0470215 10.3203 1.946 13.0032 3.56914 14.4754C5.95816 16.6446 7.74231 15.6219 8.44292 15.0716V15.0991C9.10005 15.8091 9.67285 16.6007 10.1487 17.4563C10.2445 17.6214 10.3185 17.7499 10.3881 17.8508C10.4229 17.9027 10.4704 17.9437 10.5256 17.9696C10.5807 17.9954 10.6415 18.0051 10.7014 17.9975C10.7591 17.9899 10.8143 17.9679 10.8624 17.9333C10.9342 17.8766 10.9821 17.7926 10.9959 17.6992C11.0097 17.6058 10.9884 17.5104 10.9364 17.4334C10.8755 17.3463 10.8145 17.2316 10.7319 17.0895C10.2305 16.1873 9.62701 15.3526 8.93465 14.6038C9.56128 13.7508 10.771 11.1183 7.1592 9.12796C5.2184 8.05939 2.48125 8.27953 0.771076 7.4953C0.678118 7.41115 0.572141 7.34445 0.457762 7.2981L0.758021 7.49072C0.573058 7.40012 0.396741 7.29108 0.23148 7.1651C0.150621 7.12342 0.0770522 7.0676 0.0139006 7H0.000845947ZM7.23753 13.1087C6.872 12.751 6.50646 12.4024 6.13658 12.0631C5.76669 11.7237 5.39246 11.3843 5.01822 11.0587C4.64399 10.7331 4.23494 10.4212 3.80848 10.0956C4.33213 10.1554 4.83939 10.3237 5.30107 10.5909C5.77014 10.8393 6.20857 11.1474 6.60655 11.5082C6.99005 11.8779 7.33306 12.2917 7.62917 12.7418C7.94224 13.1833 8.18747 13.6739 8.35589 14.1956C7.96425 13.8287 7.60306 13.4664 7.23753 13.1087Z" fill="#0E8482"/>
</svg>
