<svg width="19" height="19" viewBox="0 0 19 19" fill="none" xmlns="http://www.w3.org/2000/svg">
<path fill-rule="evenodd" clip-rule="evenodd" d="M12.8819 14.8607C12.3262 15.5546 11.5329 16.0178 10.6555 16.1608C10.66 16.4512 10.6368 16.7415 10.586 17.0275C10.563 17.1079 10.5143 17.1785 10.4474 17.2287C10.3805 17.2788 10.2991 17.3058 10.2155 17.3054C10.1785 17.306 10.1415 17.3005 10.1063 17.2889C10.0055 17.2596 9.92021 17.1918 9.86884 17.1003C9.81748 17.0087 9.80416 16.9006 9.83176 16.7993C9.86879 16.6108 9.88653 16.419 9.88469 16.2269C9.08369 16.1879 8.31622 15.8934 7.69469 15.3867C6.61953 14.4968 6.28872 13.104 6.44089 12.9188C6.56406 12.8416 6.71037 12.81 6.85441 12.8295C7.66772 12.8558 8.45036 13.1461 9.08412 13.6565C9.39639 13.9175 9.66352 14.2283 9.87477 14.5762C9.85492 14.0237 9.82184 13.4084 9.77883 12.7633C9.6715 12.7946 9.55972 12.8081 9.44801 12.803C8.63346 12.7743 7.85054 12.4804 7.21831 11.966C6.13985 11.0761 5.81234 9.68339 5.96121 9.49813C6.08254 9.42246 6.22624 9.39092 6.36811 9.40881C7.18406 9.43844 7.96806 9.73345 8.60112 10.2491C9.0876 10.6602 9.4649 11.1853 9.69943 11.7775C9.61673 10.785 9.50425 9.79256 9.36862 8.88943C9.1673 8.9309 8.96214 8.95086 8.75661 8.94897C8.16021 8.95064 7.57188 8.81121 7.03967 8.54207C5.80572 7.91683 5.20033 6.62333 5.29957 6.41161C5.35581 6.29913 5.76602 6.17342 6.3218 6.17342C6.91815 6.17213 7.50639 6.31154 8.03874 6.58033C8.43633 6.78895 8.79188 7.06935 9.08742 7.40737C9.00687 6.97911 8.85714 6.56681 8.64413 6.18665C8.61979 6.14671 8.60193 6.10317 8.5912 6.05764C7.96986 5.6779 7.47044 5.12796 7.15215 4.47302C6.54675 3.206 6.82133 1.80003 7.04298 1.69747C7.06259 1.69317 7.08291 1.69317 7.10252 1.69747C7.43334 1.69747 8.55812 2.33926 9.12051 3.51696C9.47472 4.2722 9.57343 5.12223 9.4017 5.93854C9.53975 6.22639 9.6505 6.52654 9.73252 6.83505C9.79727 6.52199 9.90177 6.21849 10.0435 5.93193C10.629 4.77407 11.7637 4.15544 12.0979 4.15544C12.1196 4.14984 12.1423 4.14984 12.164 4.15544C12.3724 4.26461 12.6272 5.67389 11.992 6.92768C11.5959 7.71288 10.9316 8.33021 10.1196 8.66778C10.2387 9.40881 10.3346 10.2193 10.414 11.0364C10.5507 10.6786 10.7414 10.3439 10.9797 10.044C11.5437 9.33212 12.3597 8.86429 13.259 8.73725C13.3131 8.73117 13.3676 8.74278 13.4145 8.77033C13.5998 8.92251 13.5534 10.3549 12.6768 11.4466C12.1384 12.1121 11.3852 12.5695 10.5463 12.7401C10.586 13.329 10.6125 13.898 10.6323 14.4207C10.7686 14.0739 10.956 13.7494 11.1881 13.458C11.7531 12.7457 12.5704 12.2778 13.4707 12.1513C13.5251 12.1464 13.5796 12.1592 13.6262 12.1877C13.8082 12.3398 13.7619 13.769 12.8819 14.8607Z" fill="#0E8482"/>
<path fill-rule="evenodd" clip-rule="evenodd" d="M19.0001 18.0016C18.6859 18.3525 18.3525 18.6858 18.0016 19L14.2563 15.2548L15.2548 14.2563L19.0001 18.0016Z" fill="#0E8482"/>
<path fill-rule="evenodd" clip-rule="evenodd" d="M0 0.998465C0.314204 0.647587 0.647561 0.314217 0.998428 0L5.36409 4.36566L4.36565 5.36411L0 0.998465Z" fill="#0E8482"/>
</svg>
