<svg width="75" height="75" viewBox="0 0 75 75" fill="none" xmlns="http://www.w3.org/2000/svg">
<path d="M23.8636 68.1818H10.2273C9.32313 68.1818 8.45601 67.8227 7.81668 67.1833C7.17735 66.544 6.81818 65.6769 6.81818 64.7727V51.1364C6.81818 50.2322 6.45901 49.3651 5.81968 48.7258C5.18035 48.0864 4.31324 47.7273 3.40909 47.7273C2.50494 47.7273 1.63783 48.0864 0.998499 48.7258C0.359171 49.3651 0 50.2322 0 51.1364V64.7727C0 67.4852 1.07751 70.0865 2.9955 72.0045C4.91348 73.9225 7.51483 75 10.2273 75H23.8636C24.7678 75 25.6349 74.6408 26.2742 74.0015C26.9136 73.3622 27.2727 72.4951 27.2727 71.5909C27.2727 70.6868 26.9136 69.8196 26.2742 69.1803C25.6349 68.541 24.7678 68.1818 23.8636 68.1818ZM71.5909 47.7273C70.6868 47.7273 69.8196 48.0864 69.1803 48.7258C68.541 49.3651 68.1818 50.2322 68.1818 51.1364V64.7727C68.1818 65.6769 67.8227 66.544 67.1833 67.1833C66.544 67.8227 65.6769 68.1818 64.7727 68.1818H51.1364C50.2322 68.1818 49.3651 68.541 48.7258 69.1803C48.0864 69.8196 47.7273 70.6868 47.7273 71.5909C47.7273 72.4951 48.0864 73.3622 48.7258 74.0015C49.3651 74.6408 50.2322 75 51.1364 75H64.7727C67.4852 75 70.0865 73.9225 72.0045 72.0045C73.9225 70.0865 75 67.4852 75 64.7727V51.1364C75 50.2322 74.6408 49.3651 74.0015 48.7258C73.3622 48.0864 72.4951 47.7273 71.5909 47.7273ZM64.7727 0H51.1364C50.2322 0 49.3651 0.359171 48.7258 0.998499C48.0864 1.63783 47.7273 2.50494 47.7273 3.40909C47.7273 4.31324 48.0864 5.18035 48.7258 5.81968C49.3651 6.45901 50.2322 6.81818 51.1364 6.81818H64.7727C65.6769 6.81818 66.544 7.17735 67.1833 7.81668C67.8227 8.45601 68.1818 9.32313 68.1818 10.2273V23.8636C68.1818 24.7678 68.541 25.6349 69.1803 26.2742C69.8196 26.9136 70.6868 27.2727 71.5909 27.2727C72.4951 27.2727 73.3622 26.9136 74.0015 26.2742C74.6408 25.6349 75 24.7678 75 23.8636V10.2273C75 7.51483 73.9225 4.91348 72.0045 2.9955C70.0865 1.07751 67.4852 0 64.7727 0ZM3.40909 27.2727C4.31324 27.2727 5.18035 26.9136 5.81968 26.2742C6.45901 25.6349 6.81818 24.7678 6.81818 23.8636V10.2273C6.81818 9.32313 7.17735 8.45601 7.81668 7.81668C8.45601 7.17735 9.32313 6.81818 10.2273 6.81818H23.8636C24.7678 6.81818 25.6349 6.45901 26.2742 5.81968C26.9136 5.18035 27.2727 4.31324 27.2727 3.40909C27.2727 2.50494 26.9136 1.63783 26.2742 0.998499C25.6349 0.359171 24.7678 0 23.8636 0H10.2273C7.51483 0 4.91348 1.07751 2.9955 2.9955C1.07751 4.91348 0 7.51483 0 10.2273V23.8636C0 24.7678 0.359171 25.6349 0.998499 26.2742C1.63783 26.9136 2.50494 27.2727 3.40909 27.2727ZM30.6818 13.6364H17.0455C16.1413 13.6364 15.2742 13.9955 14.6349 14.6349C13.9955 15.2742 13.6364 16.1413 13.6364 17.0455V30.6818C13.6364 31.586 13.9955 32.4531 14.6349 33.0924C15.2742 33.7317 16.1413 34.0909 17.0455 34.0909H30.6818C31.586 34.0909 32.4531 33.7317 33.0924 33.0924C33.7317 32.4531 34.0909 31.586 34.0909 30.6818V17.0455C34.0909 16.1413 33.7317 15.2742 33.0924 14.6349C32.4531 13.9955 31.586 13.6364 30.6818 13.6364ZM27.2727 27.2727H20.4545V20.4545H27.2727V27.2727ZM44.3182 34.0909H57.9545C58.8587 34.0909 59.7258 33.7317 60.3651 33.0924C61.0045 32.4531 61.3636 31.586 61.3636 30.6818V17.0455C61.3636 16.1413 61.0045 15.2742 60.3651 14.6349C59.7258 13.9955 58.8587 13.6364 57.9545 13.6364H44.3182C43.414 13.6364 42.5469 13.9955 41.9076 14.6349C41.2683 15.2742 40.9091 16.1413 40.9091 17.0455V30.6818C40.9091 31.586 41.2683 32.4531 41.9076 33.0924C42.5469 33.7317 43.414 34.0909 44.3182 34.0909ZM47.7273 20.4545H54.5455V27.2727H47.7273V20.4545ZM30.6818 40.9091H17.0455C16.1413 40.9091 15.2742 41.2683 14.6349 41.9076C13.9955 42.5469 13.6364 43.414 13.6364 44.3182V57.9545C13.6364 58.8587 13.9955 59.7258 14.6349 60.3651C15.2742 61.0045 16.1413 61.3636 17.0455 61.3636H30.6818C31.586 61.3636 32.4531 61.0045 33.0924 60.3651C33.7317 59.7258 34.0909 58.8587 34.0909 57.9545V44.3182C34.0909 43.414 33.7317 42.5469 33.0924 41.9076C32.4531 41.2683 31.586 40.9091 30.6818 40.9091ZM27.2727 54.5455H20.4545V47.7273H27.2727V54.5455ZM44.3182 51.1364C45.2223 51.1364 46.0894 50.7772 46.7288 50.1379C47.3681 49.4985 47.7273 48.6314 47.7273 47.7273C48.6314 47.7273 49.4985 47.3681 50.1379 46.7288C50.7772 46.0894 51.1364 45.2223 51.1364 44.3182C51.1364 43.414 50.7772 42.5469 50.1379 41.9076C49.4985 41.2683 48.6314 40.9091 47.7273 40.9091H44.3182C43.414 40.9091 42.5469 41.2683 41.9076 41.9076C41.2683 42.5469 40.9091 43.414 40.9091 44.3182V47.7273C40.9091 48.6314 41.2683 49.4985 41.9076 50.1379C42.5469 50.7772 43.414 51.1364 44.3182 51.1364ZM57.9545 40.9091C57.0504 40.9091 56.1833 41.2683 55.544 41.9076C54.9046 42.5469 54.5455 43.414 54.5455 44.3182V54.5455C53.6413 54.5455 52.7742 54.9046 52.1349 55.544C51.4955 56.1833 51.1364 57.0504 51.1364 57.9545C51.1364 58.8587 51.4955 59.7258 52.1349 60.3651C52.7742 61.0045 53.6413 61.3636 54.5455 61.3636H57.9545C58.8587 61.3636 59.7258 61.0045 60.3651 60.3651C61.0045 59.7258 61.3636 58.8587 61.3636 57.9545V44.3182C61.3636 43.414 61.0045 42.5469 60.3651 41.9076C59.7258 41.2683 58.8587 40.9091 57.9545 40.9091ZM44.3182 54.5455C43.6439 54.5455 42.9848 54.7454 42.4242 55.12C41.8636 55.4946 41.4266 56.027 41.1686 56.6499C40.9106 57.2729 40.8431 57.9583 40.9746 58.6196C41.1061 59.2809 41.4308 59.8884 41.9076 60.3651C42.3844 60.8419 42.9918 61.1666 43.6531 61.2981C44.3144 61.4297 44.9999 61.3622 45.6228 61.1041C46.2457 60.8461 46.7781 60.4092 47.1527 59.8485C47.5273 59.2879 47.7273 58.6288 47.7273 57.9545C47.7273 57.0504 47.3681 56.1833 46.7288 55.544C46.0894 54.9046 45.2223 54.5455 44.3182 54.5455Z" fill="#333333"/>
</svg>
