<svg width="20" height="22" viewBox="0 0 20 22" fill="none" xmlns="http://www.w3.org/2000/svg">
<path d="M18.8234 15.13L16.8234 13.98L17.7134 13.74C17.8442 13.7095 17.9674 13.6531 18.0758 13.574C18.1843 13.4949 18.2757 13.3948 18.3446 13.2797C18.4135 13.1645 18.4585 13.0367 18.477 12.9037C18.4955 12.7708 18.487 12.6355 18.4521 12.5059C18.4172 12.3763 18.3566 12.2551 18.2738 12.1495C18.191 12.0438 18.0879 11.9559 17.9704 11.8909C17.853 11.826 17.7236 11.7854 17.5902 11.7715C17.4567 11.7576 17.3218 11.7707 17.1934 11.81L14.3734 12.57L11.6634 11L14.3734 9.43L17.1934 10.19H17.4534C17.7187 10.2245 17.9867 10.1522 18.1986 9.98903C18.4105 9.82587 18.549 9.58522 18.5834 9.32C18.6179 9.05478 18.5456 8.78673 18.3825 8.57482C18.2193 8.3629 17.9787 8.22448 17.7134 8.19L16.8234 8L18.8234 6.85C18.9377 6.78434 19.0379 6.69682 19.1183 6.59243C19.1987 6.48805 19.2578 6.36885 19.2922 6.24163C19.3265 6.11441 19.3355 5.98168 19.3186 5.85099C19.3016 5.72031 19.2591 5.59425 19.1934 5.48C19.1278 5.36575 19.0403 5.26555 18.9359 5.18513C18.8315 5.1047 18.7123 5.04562 18.5851 5.01126C18.4579 4.97691 18.3251 4.96794 18.1944 4.98488C18.0638 5.00182 17.9377 5.04434 17.8234 5.11L15.6634 6.37L15.9634 5.26C16.0028 5.13169 16.0159 4.99677 16.002 4.86328C15.9881 4.7298 15.9474 4.60048 15.8825 4.48303C15.8176 4.36558 15.7296 4.2624 15.624 4.17965C15.5183 4.09689 15.3971 4.03625 15.2675 4.00133C15.1379 3.96642 15.0026 3.95795 14.8697 3.97642C14.7368 3.9949 14.6089 4.03994 14.4938 4.10886C14.3786 4.17779 14.2785 4.26919 14.1994 4.37762C14.1203 4.48605 14.0639 4.60929 14.0334 4.74L13.2134 7.74L10.6634 9.27V6.14L12.7334 4.07C12.9197 3.88264 13.0242 3.62919 13.0242 3.365C13.0242 3.10081 12.9197 2.84736 12.7334 2.66C12.6405 2.56627 12.5299 2.49188 12.408 2.44111C12.2862 2.39034 12.1555 2.3642 12.0234 2.3642C11.8914 2.3642 11.7607 2.39034 11.6389 2.44111C11.517 2.49188 11.4064 2.56627 11.3134 2.66L10.6634 3.31V1C10.6634 0.734784 10.5581 0.48043 10.3706 0.292893C10.183 0.105357 9.92866 0 9.66344 0C9.39823 0 9.14387 0.105357 8.95634 0.292893C8.7688 0.48043 8.66344 0.734784 8.66344 1V3.47L7.85344 2.66C7.76048 2.56627 7.64988 2.49188 7.52802 2.44111C7.40616 2.39034 7.27546 2.3642 7.14344 2.3642C7.01143 2.3642 6.88073 2.39034 6.75887 2.44111C6.63701 2.49188 6.52641 2.56627 6.43344 2.66C6.24719 2.84736 6.14265 3.10081 6.14265 3.365C6.14265 3.62919 6.24719 3.88264 6.43344 4.07L8.66344 6.3V9.3L6.09344 7.78L5.27344 4.78C5.24299 4.64929 5.18654 4.52605 5.10746 4.41762C5.02837 4.30919 4.92827 4.21779 4.81311 4.14886C4.69796 4.07994 4.57011 4.03489 4.43718 4.01642C4.30425 3.99795 4.16896 4.00642 4.03937 4.04133C3.90979 4.07625 3.78855 4.13689 3.6829 4.21965C3.57724 4.3024 3.48933 4.40558 3.42439 4.52303C3.35945 4.64048 3.31882 4.7698 3.30491 4.90328C3.291 5.03677 3.30411 5.17169 3.34344 5.3L3.66344 6.37L1.50344 5.13C1.38919 5.06434 1.26313 5.02182 1.13245 5.00488C1.00177 4.98794 0.869031 4.99691 0.741815 5.03126C0.614598 5.06562 0.495395 5.1247 0.39101 5.20513C0.286626 5.28555 0.199105 5.38575 0.133444 5.5C0.0677831 5.61425 0.0252684 5.74031 0.00832722 5.871C-0.00861398 6.00168 0.00035008 6.13441 0.0347078 6.26163C0.104096 6.51855 0.272706 6.73739 0.503444 6.87L2.50344 8L1.66344 8.26C1.39823 8.29448 1.15757 8.4329 0.994413 8.64482C0.831257 8.85673 0.758966 9.12478 0.793444 9.39C0.827922 9.65522 0.966345 9.89587 1.17826 10.059C1.39018 10.2222 1.65823 10.2945 1.92344 10.26H2.18344L5.00344 9.5L7.66344 11L4.95344 12.57L2.13344 11.81C2.00113 11.7609 1.85991 11.7403 1.71907 11.7497C1.57823 11.759 1.44097 11.7981 1.31632 11.8643C1.19166 11.9305 1.08243 12.0223 0.995807 12.1338C0.909185 12.2452 0.847136 12.3737 0.81374 12.5108C0.780343 12.648 0.776357 12.7906 0.802041 12.9294C0.827726 13.0682 0.882501 13.2 0.962763 13.3161C1.04302 13.4322 1.14696 13.53 1.26772 13.6031C1.38849 13.6761 1.52335 13.7228 1.66344 13.74L2.55344 13.98L0.553444 15.13C0.322706 15.2626 0.154096 15.4814 0.0847077 15.7384C0.0153193 15.9953 0.0508358 16.2693 0.183444 16.5C0.316052 16.7307 0.53489 16.8993 0.791815 16.9687C1.04874 17.0381 1.32271 17.0026 1.55344 16.87L3.66344 15.63L3.36344 16.74C3.3238 16.868 3.31029 17.0027 3.32372 17.136C3.33714 17.2693 3.37723 17.3986 3.44159 17.5161C3.50596 17.6337 3.59328 17.7371 3.69839 17.8202C3.8035 17.9033 3.92424 17.9645 4.05344 18C4.13983 18.0098 4.22706 18.0098 4.31344 18C4.53921 18.0077 4.76094 17.9388 4.94252 17.8044C5.1241 17.6701 5.25484 17.4782 5.31344 17.26L6.13344 14.26L8.66344 12.73V15.86L6.59344 17.93C6.40719 18.1174 6.30265 18.3708 6.30265 18.635C6.30265 18.8992 6.40719 19.1526 6.59344 19.34C6.68606 19.4345 6.7965 19.5097 6.91838 19.5612C7.04025 19.6127 7.17114 19.6395 7.30344 19.64C7.43575 19.6395 7.56663 19.6127 7.68851 19.5612C7.81038 19.5097 7.92083 19.4345 8.01344 19.34L8.66344 18.69V21C8.66344 21.2652 8.7688 21.5196 8.95634 21.7071C9.14387 21.8946 9.39823 22 9.66344 22C9.92866 22 10.183 21.8946 10.3706 21.7071C10.5581 21.5196 10.6634 21.2652 10.6634 21V18.53L11.4734 19.34C11.5664 19.4337 11.677 19.5081 11.7989 19.5589C11.9207 19.6097 12.0514 19.6358 12.1834 19.6358C12.3155 19.6358 12.4462 19.6097 12.568 19.5589C12.6899 19.5081 12.8005 19.4337 12.8934 19.34C13.0797 19.1526 13.1842 18.8992 13.1842 18.635C13.1842 18.3708 13.0797 18.1174 12.8934 17.93L10.6634 15.7V12.7L13.2334 14.19L14.0534 17.19C14.112 17.4082 14.2428 17.6001 14.4244 17.7344C14.606 17.8688 14.8277 17.9377 15.0534 17.93C15.1398 17.9398 15.2271 17.9398 15.3134 17.93C15.4411 17.8964 15.5609 17.8378 15.6658 17.7576C15.7707 17.6774 15.8587 17.5773 15.9247 17.4629C15.9907 17.3486 16.0334 17.2223 16.0504 17.0913C16.0673 16.9604 16.0582 16.8274 16.0234 16.7L15.6634 15.63L17.8034 16.87C17.9177 16.9357 18.0438 16.9782 18.1744 16.9951C18.3051 17.0121 18.4379 17.0031 18.5651 16.9687C18.6923 16.9344 18.8115 16.8753 18.9159 16.7949C19.0203 16.7144 19.1078 16.6143 19.1734 16.5C19.2391 16.3857 19.2816 16.2597 19.2986 16.129C19.3155 15.9983 19.3065 15.8656 19.2722 15.7384C19.2378 15.6112 19.1787 15.492 19.0983 15.3876C19.0179 15.2832 18.9177 15.1957 18.8034 15.13H18.8234Z" fill="#00B1DD"/>
</svg>
